<?xml version="1.0" standalone="no"?>
<!DOCTYPE svg PUBLIC "-//W3C//DTD SVG 20010904//EN"
 "http://www.w3.org/TR/2001/REC-SVG-20010904/DTD/svg10.dtd">
<svg version="1.0" xmlns="http://www.w3.org/2000/svg"
 width="745.000000pt" height="730.000000pt" viewBox="0 0 745.000000 730.000000"
 preserveAspectRatio="xMidYMid meet">

<g transform="translate(0.000000,730.000000) scale(0.100000,-0.100000)"
fill="#000000" stroke="none">
<path d="M3410 7249 c-1050 -90 -2009 -633 -2631 -1489 -266 -366 -471 -803
-579 -1238 -79 -318 -104 -534 -104 -882 0 -350 26 -566 105 -885 256 -1019
954 -1885 1899 -2354 498 -247 967 -364 1520 -378 445 -11 835 47 1252 187
1226 413 2156 1480 2397 2750 48 256 55 341 55 680 0 399 -21 580 -109 915
-367 1404 -1549 2461 -2985 2669 -242 35 -583 45 -820 25z m671 -564 c577 -71
1111 -299 1569 -668 112 -91 366 -348 459 -466 355 -448 567 -948 648 -1531
24 -174 24 -585 0 -760 -82 -586 -293 -1082 -655 -1540 -97 -123 -351 -376
-472 -472 -257 -203 -504 -346 -795 -461 -805 -319 -1714 -279 -2486 108 -492
247 -894 603 -1201 1065 -106 160 -259 464 -322 640 -71 200 -71 196 13 117
209 -196 491 -387 755 -512 439 -207 903 -306 1441 -306 312 0 535 24 796 87
881 211 1590 833 1958 1718 48 115 114 316 106 324 -5 6 -528 133 -530 129 -1
-1 -21 -58 -44 -127 -80 -235 -244 -534 -405 -735 -165 -205 -416 -421 -632
-542 -335 -189 -702 -285 -1144 -300 -678 -22 -1266 153 -1754 525 -123 93
-353 320 -428 422 -140 189 -204 379 -223 670 -9 123 9 345 35 439 66 237 227
583 378 811 354 533 849 937 1432 1169 313 125 560 180 970 215 87 8 407 -4
531 -19z"/>
</g>
</svg>
