<svg xmlns="http://www.w3.org/2000/svg" shape-rendering="geometricPrecision" text-rendering="geometricPrecision" image-rendering="optimizeQuality" fill-rule="evenodd" clip-rule="evenodd" viewBox="0 0 512 512"><path fill-rule="nonzero" d="M256 0c70.64 0 134.63 28.67 180.96 74.98C483.33 121.37 512 185.36 512 256c0 70.69-28.67 134.69-74.98 181.01C390.69 483.33 326.69 512 256 512c-70.6 0-134.6-28.67-180.95-74.99l-.09-.1C28.65 390.58 0 326.59 0 256c0-70.69 28.67-134.69 74.99-181.02C121.31 28.67 185.31 0 256 0zm14.26 197.48-15.09 15.89-15.31-15c-14.35-14.14-25.21-24.8-46.25-25.11l-2.72.03c-11.69.42-22.44 4.69-30.22 11.94-7.5 7-12.3 17.02-12.49 29.21l.03 2.6c1.34 37.33 38.97 71.64 70.14 100.05 6.16 5.62 12.1 11.04 18.09 16.8l18.21 17.53 24.39-24.19 16.11-15.61c9.92-9.49 20.91-20.02 31.04-30.51 7.24-7.47 14.07-14.99 19.85-22.14 5.5-6.82 10-13.23 12.77-18.77 4.27-8.54 5.62-17.09 4.72-25.03-.9-7.84-4.01-15.22-8.67-21.52-4.82-6.51-11.26-11.91-18.62-15.59-8.39-4.2-18.05-6.18-27.89-5.05-16.81 1.91-26.41 12.09-38.09 24.47zm-15.86-26.69c13.43-13.86 26.42-24.76 50.56-27.51 15.76-1.8 31.2 1.36 44.64 8.1 11.57 5.79 21.7 14.27 29.25 24.48 7.74 10.45 12.91 22.75 14.4 35.91 1.54 13.37-.68 27.66-7.76 41.79-3.87 7.74-9.51 15.9-16.16 24.15-6.38 7.89-13.81 16.07-21.6 24.12-10.63 11.01-21.85 21.76-31.92 31.39l-15.7 15.2-45.15 44.79-39.23-37.78c-4.96-4.77-11.14-10.4-17.51-16.2-35.37-32.26-78.06-71.16-79.85-121.13l-.04-3.91c.26-21.04 8.73-38.5 21.98-50.85 12.99-12.12 30.61-19.21 49.52-19.89l4.04-.04c29.41.38 44.15 11.65 60.53 27.38zm160.75-73.94C374.45 56.16 318.17 30.98 256 30.98c-62.14 0-118.41 25.2-159.11 65.9C56.16 137.6 30.98 193.86 30.98 256c0 62.18 25.17 118.45 65.85 159.11 40.72 40.74 96.99 65.91 159.17 65.91 62.14 0 118.4-25.18 159.12-65.91 40.7-40.7 65.9-96.97 65.9-159.11 0-62.17-25.18-118.45-65.87-159.15z"/></svg>